# xmcd
#
# Track frame offsets:
#	150
#	10938
#	29549
#	38460
#	53178
#	68899
#	94393
#	109522
#	125298
#	143484
#	158204
#	179227
#	196890
#	215444
#	239797
#	251817
#	275075
#	299522
#	312255
#	328141
#
# Disc length: 4704
#
# Revision: 1
# Processed by: cddbd v1.5.1PL0 Copyright (c) Steve Scherf et al.
# Submitted via: EasyCDDAExtractor 4.6.0.1
# Normalized: r0:TDELIM( - )
#
DISCID=36125e14
DTITLE=Laëtitia sale bête - Cédric qui t'aime
DYEAR=2004
DGENRE=Compilation
TTITLE0=Louis Armtrong - What a wonderful world
TTITLE1=Cali - Tout va bien
TTITLE2=Mano solo - Je marche seul
TTITLE3=Mano Solo - Au creux de ton bras
TTITLE4=Edith Piaf - Autumn Leaves
TTITLE5=Portishead - Glorie Box
TTITLE6=Tenzen - Parlez moi de lui
TTITLE7=Edith Piaf - Hymne à l'amour
TTITLE8=De Palmas - J'en rêve encore
TTITLE9=Jacques Brel - Quand on a que l'amour
TTITLE10=Francis Cabrel - Je t'aimais, je t'aime, je t'aimerai
TTITLE11=Jacques Brel - Ne me quitte pas
TTITLE12=Alain Souchon - Je chante un baiser
TTITLE13=Saez - Gorgeous
TTITLE14=Jacques Brel - La tendresse
TTITLE15=Saez - Jeune et con (acoustisque)
TTITLE16=Indochine - More
TTITLE17=Francis Cabrel - Je l'aime à mourrir
TTITLE18=Axel Red - Parce que c'est toi
TTITLE19=Zazie and Axel Bauer - A ma place
EXTD=
EXTT0=
EXTT1=
EXTT2=
EXTT3=
EXTT4=
EXTT5=
EXTT6=
EXTT7=
EXTT8=
EXTT9=
EXTT10=
EXTT11=
EXTT12=
EXTT13=
EXTT14=
EXTT15=
EXTT16=
EXTT17=
EXTT18=
EXTT19=
PLAYORDER=
